# xmcd
#
# Track frame offsets: 
#        150
#        13162
#        26420
#        42032
#        53575
#        69957
#        82937
#        96325
#        110760
#        123032
#        135530
#        147087
#        159705
#        173995
#        187262
#        198802
#        211355
#        223870
#        237372
#        250122
#        264147
#        277472
#        291645
#        304065
#        315685
#        327415
#
# Disc length: 4522 seconds
#
# Revision: 3
# Processed by: cddbd v1.4PL0 Copyright (c) Steve Scherf et al.
# Submitted via: ExactAudioCopy v0.90b4
#
DISCID=8611a81a
DTITLE=Little Brother Montgomery - Complete Recorded Works 1930-1936 I
DTITLE=n Chronological Order
DYEAR=1900
DGENRE=
TTITLE0=No Special Rider Blues
TTITLE1=Vicksburg Blues
TTITLE2=Louisiana Blues
TTITLE3=Frico Hi-Ball Blues
TTITLE4=The Woman I Love Blues
TTITLE5=Pleading Blues
TTITLE6=Vicksburg Blues No. 2
TTITLE7=Mama You Don't Mean Me No Good
TTITLE8=Misled Blues
TTITLE9=The First Time I Met You
TTITLE10=A. and V. Railroad Blues
TTITLE11=Tantalizing Blues
TTITLE12=Vicksburg Blues--Part 3
TTITLE13=Louisiana Blues--Part 2
TTITLE14=Santa Fe Blues
TTITLE15=Something Keeps A-Worryin' Me
TTITLE16=Out West Blues
TTITLE17=Leaving Town Blues
TTITLE18=West Texas Blues
TTITLE19=Never Go Wrong Blues
TTITLE20=Sorrowful Blues
TTITLE21=Mistreatin' Woman Blues
TTITLE22=Chinese Man Blues
TTITLE23=Farish Street Jive
TTITLE24=Crescent City Blues
TTITLE25=Shreveport Farewell
EXTD=
EXTT0=
EXTT1=
EXTT2=
EXTT3=
EXTT4=
EXTT5=
EXTT6=
EXTT7=
EXTT8=
EXTT9=
EXTT10=
EXTT11=
EXTT12=
EXTT13=
EXTT14=
EXTT15=
EXTT16=
EXTT17=
EXTT18=
EXTT19=
EXTT20=
EXTT21=
EXTT22=
EXTT23=
EXTT24=
EXTT25=
PLAYORDER=
